<?xml version="1.0" standalone="no"?>
<!DOCTYPE svg PUBLIC "-//W3C//DTD SVG 20010904//EN"
 "http://www.w3.org/TR/2001/REC-SVG-20010904/DTD/svg10.dtd">
<svg version="1.0" xmlns="http://www.w3.org/2000/svg"
 width="240.000000pt" height="240.000000pt" viewBox="0 0 240.000000 240.000000"
 preserveAspectRatio="xMidYMid meet">
<metadata>
Created by potrace 1.11, written by Peter Selinger 2001-2013
</metadata>
<g transform="translate(0.000000,240.000000) scale(0.100000,-0.100000)"
fill="#000000" stroke="none">
<path d="M1282 2310 c-12 -22 -21 -41 -20 -43 2 -1 -7 -13 -19 -26 -12 -13
-20 -27 -18 -31 3 -4 -2 -13 -10 -20 -8 -7 -15 -19 -15 -26 0 -8 -5 -14 -12
-14 -6 0 -9 -3 -5 -6 3 -4 -5 -23 -18 -43 -14 -19 -25 -41 -25 -47 0 -7 -4
-14 -8 -16 -4 -1 -28 -39 -51 -83 -24 -44 -48 -82 -53 -83 -4 -2 -6 -8 -2 -13
3 -5 -2 -12 -10 -15 -9 -3 -13 -10 -10 -15 3 -6 -5 -24 -18 -42 -13 -18 -30
-47 -37 -64 -8 -18 -16 -33 -20 -33 -4 0 -12 -12 -18 -27 -7 -16 -28 -55 -47
-88 -19 -33 -43 -76 -54 -95 -11 -19 -30 -53 -42 -75 -13 -22 -36 -65 -53 -95
-16 -30 -33 -59 -37 -65 -5 -5 -21 -32 -36 -60 -15 -27 -38 -68 -50 -90 -13
-22 -33 -59 -45 -82 -12 -24 -26 -43 -31 -43 -4 0 -8 -8 -8 -19 0 -10 -7 -24
-15 -31 -8 -7 -12 -16 -9 -21 3 -5 0 -9 -5 -9 -6 0 -11 -7 -11 -15 0 -7 -8
-19 -18 -24 -9 -6 -13 -11 -8 -11 4 0 2 -10 -6 -22 -8 -13 -32 -54 -53 -93
-21 -38 -42 -72 -47 -73 -4 -2 -6 -8 -2 -13 3 -5 0 -9 -5 -9 -6 0 -11 -6 -11
-13 0 -7 -11 -29 -25 -48 -13 -20 -21 -39 -18 -43 4 -3 1 -6 -5 -6 -7 0 -12
-6 -12 -14 0 -7 -7 -19 -15 -26 -8 -7 -13 -16 -10 -20 3 -4 -1 -13 -9 -19 -7
-6 -21 -29 -31 -51 -10 -22 -22 -40 -27 -40 -4 0 -8 -9 -8 -20 0 -11 -4 -20
-9 -20 -5 0 -14 -12 -20 -28 -6 -15 -24 -49 -41 -77 -16 -27 -35 -61 -41 -75
-5 -13 -13 -27 -17 -30 -4 -3 -13 -15 -20 -27 l-12 -23 304 0 305 0 21 30 c12
16 18 30 14 30 -4 0 0 8 9 18 10 10 14 22 11 25 -4 4 0 9 9 13 9 3 13 12 10
20 -3 8 -1 14 4 14 9 0 31 39 29 51 0 3 6 14 14 24 8 9 29 46 46 81 17 35 35
60 39 56 5 -4 5 1 2 11 -4 9 -2 17 3 17 6 0 10 7 10 15 0 13 58 15 465 15 436
0 465 -1 466 -17 0 -10 2 -27 5 -38 2 -11 6 -36 9 -55 11 -84 14 -107 20 -135
4 -16 9 -46 11 -65 2 -19 6 -46 8 -60 3 -14 5 -31 5 -37 1 -10 65 -13 287 -13
l285 0 -4 43 c-3 23 -8 49 -11 57 -3 8 -7 33 -9 55 -3 22 -7 47 -10 55 -3 8
-10 47 -16 85 -6 39 -13 81 -16 95 -3 14 -7 42 -10 62 -2 21 -6 41 -8 45 -3 5
-7 31 -11 58 -3 28 -8 60 -11 72 -3 13 -7 33 -10 45 -3 13 -7 37 -10 53 -12
82 -15 102 -20 125 -4 14 -8 39 -11 55 -3 17 -10 57 -16 90 -6 33 -12 71 -14
85 -2 14 -10 61 -19 105 -8 44 -18 96 -21 115 -9 58 -12 74 -18 105 -4 17 -9
46 -12 65 -2 19 -7 46 -10 60 -10 55 -13 69 -19 106 -7 44 -13 69 -15 69 -1 0
-3 16 -5 35 -2 19 -6 46 -9 60 -2 14 -7 43 -11 65 -3 22 -7 47 -10 55 -2 8 -7
33 -10 55 -4 22 -9 50 -11 63 -2 12 -6 32 -8 45 -4 23 -12 72 -22 122 -3 17
-7 37 -9 45 -2 8 -4 23 -4 33 -1 16 -24 17 -343 17 l-343 0 -23 -40z m270
-587 c2 -46 6 -74 22 -168 8 -49 17 -106 20 -125 3 -19 8 -46 11 -60 3 -14 8
-45 11 -70 3 -25 8 -58 10 -75 7 -41 15 -104 19 -140 2 -16 4 -30 5 -30 2 0 9
-37 15 -80 3 -22 7 -50 9 -62 l5 -22 -305 1 c-167 1 -304 3 -304 5 0 9 76 149
88 161 7 8 10 18 7 23 -4 5 -2 9 3 9 5 0 24 30 42 68 19 37 36 69 39 72 3 3
15 23 26 45 11 22 30 57 42 78 13 20 21 37 18 37 -4 0 36 64 54 86 6 7 8 14 5
17 -3 2 9 26 25 53 17 26 31 52 31 57 0 4 7 15 15 24 8 8 13 19 10 24 -4 5 -2
9 3 9 5 0 15 14 22 30 7 17 16 30 21 30 5 0 8 3 8 8 -3 14 1 22 11 22 6 0 11
-12 12 -27z"/>
</g>
</svg>
